<svg width="220" height="51" viewBox="0 0 220 51" fill="none" xmlns="http://www.w3.org/2000/svg">
<g clip-path="url(#clip0_322_284)">
<path fill-rule="evenodd" clip-rule="evenodd" d="M10.8062 6.02663C15.9102 2.959 21.0527 0 21.4872 0C21.5738 0 21.8433 0.114125 22.2613 0.3245C23.9553 1.17288 28.0748 3.56538 32.1709 6.02663C32.1915 11.2544 29.4732 14.1199 21.4885 12.4479C17.0693 14.9463 13.5933 12.3489 10.8062 6.02663Z" fill="#D19E74"/>
<path fill-rule="evenodd" clip-rule="evenodd" d="M32.2946 18.9424L21.4885 25.4379L10.6824 18.9424L21.4885 12.4482L32.2946 18.9424Z" fill="#D7D5D8"/>
<path fill-rule="evenodd" clip-rule="evenodd" d="M32.2946 18.9424L21.4885 25.4379L10.6824 18.9424L21.4885 12.4482L32.2946 18.9424Z" fill="#D19460"/>
<path fill-rule="evenodd" clip-rule="evenodd" d="M21.9725 25.1459L10.8433 31.8353L0 25.5117V25.3632L11.0041 18.748L21.9725 25.1459Z" fill="#C2C0C7"/>
<path fill-rule="evenodd" clip-rule="evenodd" d="M32.2946 18.9424L21.4885 25.4379L10.6824 18.9424L21.4885 12.4482L32.2946 18.9424Z" fill="#D19B6E"/>
<path fill-rule="evenodd" clip-rule="evenodd" d="M42.6484 12.7178C43.0857 13.7188 43.0829 37.3729 42.6484 38.1566C42.2139 38.9404 22.5377 50.7695 21.4885 50.8754V25.4379L32.2947 18.9424L42.6484 12.7178Z" fill="#5E666C"/>
<path fill-rule="evenodd" clip-rule="evenodd" d="M10.6824 18.9424L0 25.3636C0 19.2765 0.10725 13.2073 0.32725 12.7178L10.6824 18.9424Z" fill="#D7D5D8"/>
<path fill-rule="evenodd" clip-rule="evenodd" d="M21.4885 25.4375V38.4271L10.6824 31.9316L21.4885 25.4375Z" fill="#ACACB4"/>
<path fill-rule="evenodd" clip-rule="evenodd" d="M10.7443 31.9316C8.99662 36.6368 5.08888 38.0476 0.32725 38.1562C0.11 37.763 0 31.647 0 25.5117C3.97375 26.312 7.73438 27.8396 10.7443 31.9316Z" fill="#D5D3D3"/>
<path fill-rule="evenodd" clip-rule="evenodd" d="M32.9655 19.0777L21.399 26.0297L9.17114 19.2963C10.0223 15.0943 14.1418 12.519 21.5764 12.4475C28.4129 10.803 33.2914 11.6403 32.9655 19.0777Z" fill="#CA8451"/>
<path fill-rule="evenodd" clip-rule="evenodd" d="M42.6511 38.1436L42.6483 38.156C42.4187 38.5712 36.7771 42.0926 31.3733 45.3197L19.6377 37.9566L31.2386 30.9854L42.6511 38.1436Z" fill="#80858D"/>
<path fill-rule="evenodd" clip-rule="evenodd" d="M32.1695 6.02637C37.2942 9.10637 42.3487 12.273 42.6484 12.7171L32.2947 18.9417L21.4885 12.4476L26.8909 9.19987L32.1695 6.02637Z" fill="#C86834"/>
<path fill-rule="evenodd" clip-rule="evenodd" d="M42.9756 25.3623V25.5121L32.2946 31.932L21.4885 25.4379L32.2946 18.9424L42.9756 25.3623Z" fill="#5E666C"/>
<path fill-rule="evenodd" clip-rule="evenodd" d="M42.9756 25.3623V25.5121C40.6973 30.2559 36.839 31.7904 32.2946 31.932C25.8651 33.4816 22.4139 31.1194 21.4885 25.4379L32.2946 18.9424C37.631 19.26 41.4191 21.1685 42.9756 25.3623Z" fill="#5E6166"/>
<path fill-rule="evenodd" clip-rule="evenodd" d="M42.6484 12.7178C42.8643 13.2141 42.9743 19.2765 42.9757 25.3623L32.2947 18.9424L42.6484 12.7178Z" fill="#464950"/>
<path fill-rule="evenodd" clip-rule="evenodd" d="M42.6484 38.1564C42.4298 38.5511 37.3189 41.7534 32.1695 44.8472C26.6805 46.4408 23.7972 42.9882 21.4885 38.4273C23.1358 35.4037 25.1708 32.5506 32.2947 31.9318C39.9548 31.0546 41.7437 34.2954 42.6484 38.1564Z" fill="#5E6166"/>
<path fill-rule="evenodd" clip-rule="evenodd" d="M0.327148 38.156L11.2501 31.5918L22.2763 37.8027L10.9036 44.6378L5.39952 41.5372C2.6069 39.806 0.525148 38.4448 0.327148 38.156Z" fill="#B7B6BD"/>
<path fill-rule="evenodd" clip-rule="evenodd" d="M42.9756 25.5117C42.9756 31.6057 42.867 37.6667 42.6484 38.1562L32.2946 31.9316L42.9756 25.5117Z" fill="#51555A"/>
<path fill-rule="evenodd" clip-rule="evenodd" d="M10.7443 18.9421C8.72713 24.0172 6.19025 26.5788 0 25.3633L0.01925 21.0541L0.284625 12.9443L0.32725 12.7174C0.3575 12.6638 0.48125 12.5552 0.691625 12.3984L10.7443 18.9421Z" fill="#D5D3D3"/>
<path fill-rule="evenodd" clip-rule="evenodd" d="M10.806 6.02637L21.4884 12.4476L10.6823 18.9417L0.327148 12.7171C0.545773 12.3225 5.65665 9.12012 10.806 6.02637Z" fill="#D8BBA7"/>
<path fill-rule="evenodd" clip-rule="evenodd" d="M21.4885 25.4379C19.5236 29.2865 16.3941 31.9375 10.6824 31.932L0.001375 25.5121L0 25.3636L10.6824 18.9424L21.4885 25.4379Z" fill="#BCBABA"/>
<path fill-rule="evenodd" clip-rule="evenodd" d="M0.327148 38.1563L10.6823 31.9316C14.634 32.8034 18.4125 34.3173 21.4884 38.4271C18.8841 41.2074 15.1716 43.2465 10.806 44.847C5.6979 41.7794 0.626898 38.6018 0.327148 38.1563Z" fill="#B0ADAE"/>
<path fill-rule="evenodd" clip-rule="evenodd" d="M32.2946 31.9316L21.4885 38.4271L10.6824 31.9316L21.4885 25.4375L32.2946 31.9316Z" fill="#A29FA2"/>
<path fill-rule="evenodd" clip-rule="evenodd" d="M32.1709 44.8466C27.0642 47.9156 21.923 50.8746 21.4885 50.8746C21.054 50.8746 15.9115 47.9156 10.8062 44.8466L21.4885 38.4268L32.1709 44.8466Z" fill="#969496"/>
<path d="M79.7471 40.1984V14.5134H72.4101V17.2428C71.4366 15.6698 69.183 13.6348 65.1598 13.6348C58.6175 13.6348 52.8274 18.9106 52.8274 27.3311C52.8274 34.6915 57.38 41.077 65.1598 41.077C68.0335 41.077 71.0833 39.9206 72.4101 37.4223V40.1984H79.7471ZM71.3926 31.034C70.4645 32.6084 68.8723 33.9036 66.2653 33.9036C61.8446 33.9036 60.1644 29.8309 60.1644 27.4714V27.4246C60.1644 24.5096 62.0206 20.8068 66.2213 20.8068C69.315 20.8068 70.9953 22.6121 71.79 24.3708C72.2768 25.435 72.4981 26.5914 72.4101 27.7491C72.3208 28.9055 72.0114 30.0165 71.3926 31.034Z" fill="white"/>
<path d="M100.352 5.95215V16.6881C99.5541 15.8563 97.4779 13.6343 93.1452 13.6343C86.9124 13.6343 80.9902 18.5843 80.9902 27.2853C80.9902 35.0141 85.8509 41.0298 93.2786 41.0298C98.2286 41.0298 99.9969 38.4846 100.705 37.4218V40.1979H107.689V5.95215H100.352ZM99.0247 31.9135C97.8752 33.1166 96.239 33.8578 94.4721 33.8578C91.0222 33.8578 88.3259 31.2178 88.3259 27.2853V27.2399C88.3259 24.2781 90.3155 20.8049 94.5587 20.8049C96.2844 20.8049 97.8312 21.4539 98.9367 22.6103C100.041 23.7226 100.748 25.2956 100.748 27.1478C100.837 29.0453 100.174 30.7104 99.0247 31.9135Z" fill="white"/>
<path d="M124.668 40.1977L133.508 14.5127H125.906L121.175 30.5259L116.446 14.5127H108.844L117.639 40.1977H124.668Z" fill="white"/>
<path d="M144.382 41.0303C146.902 41.0303 149.333 40.2438 151.366 38.7161C153.445 37.2366 155.169 35.0146 156.364 32.145H148.848C147.962 33.4884 146.725 34.5513 144.382 34.5513C141.51 34.5513 139.035 32.7473 138.722 30.0165H156.981C157.554 25.2961 156.628 21.178 153.533 17.7075C151.235 15.1624 148.008 13.6348 144.25 13.6348C136.78 13.6348 131.385 20.2513 131.385 27.4246C131.385 35.06 137.354 41.0303 144.382 41.0303ZM144.294 20.1124C148.096 20.1124 149.599 22.982 149.775 24.1851H138.812C138.989 22.982 140.492 20.1124 144.294 20.1124Z" fill="white"/>
<path d="M171.698 21.3616V14.5223C167.456 14.5223 166.173 15.9936 165.466 17.3809V14.5127H158.569V40.1977H165.909V26.4064C165.909 22.7957 167.676 21.3616 171.432 21.3616H171.698Z" fill="white"/>
<path d="M180.291 5.95215H172.954V11.7821H180.291V5.95215Z" fill="white"/>
<path d="M212.22 14.5129L207.534 29.4138L202.54 14.5129H193.258V5.95215H185.919V14.5129H172.954V40.1979H180.291V20.3456H185.919V40.1979H193.258V20.3456H196.793V20.0803L203.82 38.9013L201.451 44.9045H209.093L220 14.5129H212.22Z" fill="white"/>
</g>
<defs>
<clipPath id="clip0_322_284">
<rect width="220" height="50.875" fill="white"/>
</clipPath>
</defs>
</svg>
