<svg width="226" height="52" viewBox="0 0 226 52" fill="none" xmlns="http://www.w3.org/2000/svg">
<g clip-path="url(#clip0_322_339)">
<path d="M191.3 37C191.3 37 191.4 37 191.4 37.1C191.5 37.1 191.6 37.2 191.7 37.3C191.7 37.3 191.8 37.3 191.8 37.4C192 37.5 192.1 37.6 192.3 37.6C194.2 38.6 197 39.8 199.9 40.8C186 26.6 204.4 3.9 206.5 0.4C206.6 0.2 206.7 0 206.7 0C206.6 0.1 206.6 0.1 206.5 0.2C203.8 2.4 186.9 17.8 189.6 36.2L191 36.9C191.1 36.9 191.2 37 191.3 37Z" fill="white"/>
<path d="M208.2 0.2C208.1 0.1 208 0 208 0C208 0 208 0.2 208.2 0.4C210.3 3.9 229.2 27.1 214.3 41.4C212.5 43.1 210.1 43.7 207.5 43.8C201.6 43.9 193.1 39.6 190.1 38C190.2 38.6 190.4 39.2 190.6 39.9C190.6 40 190.7 40.1 190.7 40.2C192.6 46.5 198.5 50.3 204.8 51.1C205.6 51.2 206.4 51.3 207.3 51.2C207.4 51.2 207.4 51.2 207.5 51.2C207.6 51.2 207.6 51.2 207.7 51.2C215 51.3 222.1 47.2 224.3 40.2C230.4 20.1 211.1 2.6 208.2 0.2Z" fill="#538DCA"/>
<path d="M101.5 48.7002C102.4 49.2002 103.7 49.7002 105 49.7002C107 49.7002 108.2 48.6002 108.2 47.1002C108.2 45.7002 107.4 44.9002 105.3 44.1002C102.8 43.2002 101.3 41.9002 101.3 39.8002C101.3 37.4002 103.3 35.7002 106.2 35.7002C107.8 35.7002 108.9 36.1002 109.6 36.4002L109.1 38.0002C108.6 37.7002 107.6 37.3002 106.2 37.3002C104.1 37.3002 103.3 38.5002 103.3 39.6002C103.3 41.0002 104.2 41.7002 106.3 42.5002C108.9 43.5002 110.2 44.7002 110.2 47.0002C110.2 49.3002 108.5 51.4002 104.9 51.4002C103.4 51.4002 101.8 51.0002 101 50.4002L101.5 48.7002Z" fill="#538DCA"/>
<path d="M114.1 46.0004C114.1 48.7004 115.9 49.8004 117.8 49.8004C119.2 49.8004 120.1 49.6004 120.8 49.2004L121.1 50.6004C120.4 50.9004 119.2 51.3004 117.5 51.3004C114.1 51.3004 112.1 49.1004 112.1 45.8004C112.1 42.5004 114 39.9004 117.2 39.9004C120.8 39.9004 121.7 43.0004 121.7 45.0004C121.7 45.4004 121.7 45.7004 121.6 45.9004C121.7 46.0004 114.1 46.0004 114.1 46.0004ZM119.9 44.6004C119.9 43.3004 119.4 41.4004 117.1 41.4004C115.1 41.4004 114.2 43.2004 114.1 44.6004H119.9Z" fill="#538DCA"/>
<path d="M124.2 43.6004C124.2 42.3004 124.2 41.2004 124.1 40.2004H125.8L125.9 42.3004H126C126.5 40.8004 127.7 39.9004 129 39.9004C129.2 39.9004 129.4 39.9004 129.6 40.0004V41.9004C129.4 41.9004 129.2 41.8004 128.9 41.8004C127.5 41.8004 126.5 42.9004 126.2 44.3004C126.2 44.6004 126.1 44.9004 126.1 45.2004V51.0004H124.1L124.2 43.6004Z" fill="#538DCA"/>
<path d="M132.9 40.2002L135 46.3002C135.4 47.3002 135.6 48.2002 135.9 49.1002H136C136.2 48.2002 136.6 47.3002 136.9 46.3002L139 40.2002H141.1L136.8 51.1002H135L130.9 40.2002H132.9Z" fill="#538DCA"/>
<path d="M145.2 37.2002C145.2 37.9002 144.7 38.4002 143.9 38.4002C143.2 38.4002 142.7 37.9002 142.7 37.2002C142.7 36.5002 143.2 36.0002 143.9 36.0002C144.7 35.9002 145.2 36.5002 145.2 37.2002ZM143 51.1002V40.2002H145V51.1002H143Z" fill="#538DCA"/>
<path d="M156 50.7004C155.5 51.0004 154.3 51.3004 152.9 51.3004C149.6 51.3004 147.5 49.1004 147.5 45.7004C147.5 42.3004 149.8 39.9004 153.4 39.9004C154.6 39.9004 155.6 40.2004 156.2 40.5004L155.8 42.0004C155.3 41.7004 154.6 41.5004 153.5 41.5004C151 41.5004 149.6 43.3004 149.6 45.6004C149.6 48.1004 151.2 49.7004 153.4 49.7004C154.5 49.7004 155.3 49.4004 155.8 49.2004L156 50.7004Z" fill="#538DCA"/>
<path d="M159.3 46.0004C159.3 48.7004 161.1 49.8004 163 49.8004C164.4 49.8004 165.3 49.6004 166 49.2004L166.3 50.6004C165.6 50.9004 164.4 51.3004 162.7 51.3004C159.3 51.3004 157.3 49.1004 157.3 45.8004C157.3 42.5004 159.2 39.9004 162.4 39.9004C166 39.9004 166.9 43.0004 166.9 45.0004C166.9 45.4004 166.8 45.7004 166.8 45.9004C167 46.0004 159.3 46.0004 159.3 46.0004ZM165.1 44.6004C165.1 43.3004 164.6 41.4004 162.3 41.4004C160.3 41.4004 159.4 43.2004 159.3 44.6004H165.1Z" fill="#538DCA"/>
<path d="M169.2 49.1C169.8 49.5 170.8 49.9 171.8 49.9C173.2 49.9 173.9 49.2 173.9 48.3C173.9 47.3 173.3 46.8 171.9 46.3C169.9 45.6 169 44.5 169 43.2C169 41.4 170.4 40 172.8 40C173.9 40 174.9 40.3 175.5 40.7L175 42.1C174.6 41.8 173.8 41.5 172.8 41.5C171.6 41.5 171 42.2 171 43C171 43.9 171.6 44.3 173.1 44.8C175 45.5 176 46.5 176 48.1C176 50 174.5 51.4 171.9 51.4C170.7 51.4 169.6 51.1 168.8 50.7L169.2 49.1Z" fill="#538DCA"/>
<path d="M40.7 12.7002C40.7 7.5002 40.6999 6.6002 40.5999 5.5002C40.4999 4.3002 40.2999 3.8002 39.0999 3.6002C38.7999 3.5002 38.2999 3.5002 37.7999 3.5002C37.3999 3.5002 37.2 3.4002 37.2 3.2002C37.2 3.0002 37.4 2.9002 38 2.9002C38.9 2.9002 39.8999 2.9002 40.7999 2.9002C41.6999 2.9002 42.5 3.0002 43 3.0002C44.1 3.0002 50.9 3.0002 51.5 3.0002C52.2 2.9002 52.7 2.9002 53 2.8002C53.2 2.8002 53.4 2.7002 53.5 2.7002C53.6 2.7002 53.7 2.8002 53.7 3.0002C53.7 3.2002 53.5 3.7002 53.4 5.2002C53.4 5.5002 53.3 7.0002 53.2 7.4002C53.2 7.60019 53.1 7.8002 52.9 7.8002C52.7 7.8002 52.5999 7.6002 52.5999 7.3002C52.5999 7.1002 52.6 6.5002 52.4 6.1002C52.2 5.5002 51.7999 5.1002 50.0999 4.9002C49.4999 4.8002 45.9 4.8002 45.2999 4.8002C44.9999 4.6002 45 4.7002 45 4.9002V13.5002C45 13.7002 45 13.9002 45.2 13.9002C46 13.9002 49.9 13.9002 50.7 13.8002C51.5 13.7002 51.9999 13.6002 52.2999 13.3002C52.4999 13.0002 52.6999 12.9002 52.7999 12.9002C52.9 12.9002 53 13.0002 53 13.2002C53 13.4002 52.9 14.0002 52.7 15.7002C52.7 16.4002 52.5999 17.8002 52.5999 18.0002C52.5999 18.3002 52.5999 18.6002 52.2999 18.6002C52.0999 18.6002 52 18.5002 52 18.3002C52 18.0002 52 17.5002 51.9 17.1002C51.7 16.4002 51.2 15.9002 50 15.8002C49.3 15.7002 46 15.7002 45.2 15.7002C45 15.6002 45 15.8002 45 16.0002V18.7002C45 19.9002 45 23.0002 45 24.0002C45.1 26.4002 45.5999 26.9002 49.0999 26.9002C49.9999 26.9002 51.4 26.9002 52.2999 26.5002C53.1999 26.1002 53.5999 25.4002 53.7999 24.0002C53.9 23.6002 53.9 23.5002 54.2 23.5002C54.5 23.5002 54.5 23.8002 54.5 24.1002C54.5 24.9002 54.1999 27.2002 54.0999 27.9002C53.8999 28.8002 53.5999 28.8002 52.2999 28.8002C49.6999 28.8002 47.9 28.7002 46.4 28.7002C44.9 28.6002 43.9 28.6002 42.9 28.6002C42.5 28.6002 41.8 28.6002 40.9 28.6002C40.1 28.6002 39.1999 28.7002 38.5999 28.7002C38.1999 28.7002 37.9 28.6002 37.9 28.4002C37.9 28.2002 38 28.1002 38.4 28.1002C38.9 28.1002 39.2999 28.0002 39.5999 28.0002C40.2999 27.9002 40.3999 27.1002 40.5999 26.1002C40.7999 24.7002 40.7999 22.0002 40.7999 18.8002L40.7 12.7002Z" fill="white"/>
<path d="M60.4 28.1998C59.9 27.9998 59.7 27.7998 59.7 26.9998C59.7 25.0998 59.8 23.0998 59.9 22.4998C59.9 21.9998 59.9999 21.5998 60.2999 21.5998C60.5999 21.5998 60.5999 21.8998 60.5999 22.1998C60.5999 22.5998 60.7 23.3998 60.9 23.8998C61.7 26.3998 63.7 27.3998 65.8 27.3998C68.9 27.3998 70.4 25.2998 70.4 23.4998C70.4 21.7998 69.8999 20.2998 67.0999 17.9998L65.5 16.7998C61.7 13.8998 60.5 11.4998 60.5 8.6998C60.5 4.8998 63.6 2.2998 68.4 2.2998C70.6 2.2998 72.1 2.5998 72.9 2.8998C73.2 2.9998 73.4 3.0998 73.4 3.2998C73.4 3.6998 73.3 4.69981 73.3 7.39981C73.3 8.19981 73.2 8.3998 72.9 8.3998C72.7 8.3998 72.5999 8.1998 72.5999 7.7998C72.5999 7.4998 72.3999 6.3998 71.6999 5.5998C71.1999 4.8998 70.2 3.8998 68 3.8998C65.5 3.8998 63.9 5.39981 63.9 7.39981C63.9 8.9998 64.7 10.1998 67.5 12.2998L68.5 12.9998C72.6 16.0998 74.0999 18.4998 74.0999 21.6998C74.0999 23.6998 73.3 25.9998 70.9 27.5998C69.2 28.6998 67.3 28.9998 65.5 28.9998C63.4 29.0998 61.8 28.7998 60.4 28.1998Z" fill="white"/>
<path d="M79.4 28.1998C78.8 27.9998 78.7 27.7998 78.7 26.9998C78.7 25.0998 78.8 23.0998 78.9 22.4998C78.9 21.9998 79 21.5998 79.3 21.5998C79.6 21.5998 79.6 21.8998 79.6 22.1998C79.6 22.5998 79.7 23.3998 79.9 23.8998C80.7 26.3998 82.7 27.3998 84.8 27.3998C87.9 27.3998 89.4 25.2998 89.4 23.4998C89.4 21.7998 88.9 20.2998 86.1 17.9998L84.5 16.7998C80.7 13.8998 79.4 11.4998 79.4 8.6998C79.4 4.8998 82.5 2.2998 87.3 2.2998C89.5 2.2998 91 2.5998 91.8 2.8998C92.1 2.9998 92.3 3.0998 92.3 3.2998C92.3 3.6998 92.2 4.69981 92.2 7.39981C92.2 8.19981 92.1 8.3998 91.8 8.3998C91.6 8.3998 91.5 8.1998 91.5 7.7998C91.5 7.4998 91.3 6.3998 90.6 5.5998C90.1 4.8998 89.1 3.8998 86.9 3.8998C84.4 3.8998 82.8 5.39981 82.8 7.39981C82.8 8.9998 83.6 10.1998 86.4 12.2998L87.4 12.9998C91.5 16.0998 93 18.4998 93 21.6998C93 23.6998 92.2 25.9998 89.8 27.5998C88.1 28.6998 86.2 28.9998 84.4 28.9998C82.4 29.0998 80.8 28.7998 79.4 28.1998Z" fill="white"/>
<path d="M101.1 12.7002C101.1 7.5002 101.1 6.6002 101 5.5002C100.9 4.3002 100.7 3.8002 99.5001 3.6002C99.2001 3.5002 98.7001 3.5002 98.2001 3.5002C97.8001 3.5002 97.6001 3.4002 97.6001 3.2002C97.6001 3.0002 97.8001 2.9002 98.4001 2.9002C99.3001 2.9002 100.3 2.9002 101.2 2.9002C102.1 2.9002 102.9 3.0002 103.4 3.0002C104.5 3.0002 111.3 3.0002 111.9 3.0002C112.6 2.9002 113.1 2.9002 113.4 2.8002C113.6 2.8002 113.8 2.7002 114 2.7002C114.2 2.7002 114.2 2.8002 114.2 3.0002C114.2 3.2002 114 3.7002 113.9 5.2002C113.9 5.5002 113.8 7.0002 113.7 7.4002C113.7 7.60019 113.6 7.8002 113.4 7.8002C113.2 7.8002 113 7.5002 113 7.2002C113 7.0002 113 6.4002 112.8 6.0002C112.6 5.4002 112.2 5.0002 110.5 4.8002C109.9 4.7002 106.3 4.7002 105.7 4.7002C105.5 4.7002 105.5 4.8002 105.5 5.0002V13.6002C105.5 13.8002 105.5 14.0002 105.7 14.0002C106.5 14.0002 110.4 14.0002 111.2 13.9002C112 13.8002 112.5 13.7002 112.8 13.4002C113 13.1002 113.2 13.0002 113.4 13.0002C113.5 13.0002 113.6 13.1002 113.6 13.3002C113.6 13.5002 113.5 14.1002 113.3 15.8002C113.3 16.5002 113.2 17.9002 113.2 18.1002C113.2 18.4002 113.2 18.7002 112.9 18.7002C112.7 18.7002 112.6 18.6002 112.6 18.4002C112.6 18.1002 112.6 17.6002 112.5 17.2002C112.3 16.5002 111.8 16.0002 110.6 15.9002C109.9 15.8002 106.6 15.8002 105.8 15.8002C105.6 15.8002 105.6 15.9002 105.6 16.1002V18.8002C105.6 20.0002 105.6 23.1002 105.6 24.1002C105.7 26.5002 106.2 27.0002 109.7 27.0002C110.6 27.0002 112 27.0002 112.9 26.6002C113.8 26.2002 114.2 25.5002 114.4 24.1002C114.5 23.7002 114.5 23.6002 114.8 23.6002C115.1 23.6002 115.1 23.9002 115.1 24.2002C115.1 25.0002 114.8 27.3002 114.7 28.0002C114.5 28.9002 114.1 28.9002 112.9 28.9002C110.3 28.9002 108.5 28.8002 107 28.8002C105.5 28.7002 104.5 28.7002 103.4 28.7002C103 28.7002 102.3 28.7002 101.5 28.7002C100.7 28.7002 99.8001 28.8002 99.2001 28.8002C98.8001 28.8002 98.5001 28.7002 98.5001 28.5002C98.5001 28.3002 98.6001 28.2002 99.1001 28.2002C99.6001 28.2002 100 28.1002 100.3 28.1002C101 28.0002 101.1 27.2002 101.3 26.2002C101.5 24.8002 101.5 22.1002 101.5 18.9002L101.1 12.7002Z" fill="white"/>
<path d="M122.2 12.6994C122.2 7.49941 122.2 6.59941 122.1 5.49941C122 4.29941 121.8 3.79941 120.6 3.59941C120.3 3.49941 119.8 3.49941 119.3 3.49941C118.9 3.49941 118.7 3.39941 118.7 3.19941C118.7 2.99941 118.9 2.89941 119.5 2.89941C121.3 2.89941 123.5 2.99941 124.2 2.99941C125.4 2.99941 128 2.89941 129 2.89941C131.1 2.89941 133.4 3.09941 135.3 4.39941C136.3 5.09941 137.6 6.79941 137.6 9.09941C137.6 11.5994 136.5 13.9994 133.1 16.6994C136.1 20.4994 138.5 23.5994 140.5 25.6994C142.4 27.6994 143.8 27.8994 144.3 27.9994C144.7 28.0994 145 28.0994 145.3 28.0994C145.6 28.0994 145.7 28.1994 145.7 28.3994C145.7 28.6994 145.5 28.6994 145.1 28.6994H141.9C140 28.6994 139.1 28.4994 138.3 28.0994C136.8 27.2994 135.5 25.6994 133.6 23.0994C132.2 21.1994 130.7 18.8994 130.2 18.3994C130 18.1994 129.8 18.1994 129.6 18.1994L126.6 18.0994C126.4 18.0994 126.3 18.1994 126.3 18.3994V18.8994C126.3 22.0994 126.3 24.7994 126.5 26.1994C126.6 27.1994 126.8 27.8994 127.8 28.0994C128.3 28.1994 129.1 28.1994 129.5 28.1994C129.8 28.1994 129.9 28.2994 129.9 28.4994C129.9 28.6994 129.7 28.7994 129.2 28.7994C127.2 28.7994 124.7 28.6994 124.2 28.6994C123.5 28.6994 121.4 28.7994 120 28.7994C119.6 28.7994 119.3 28.6994 119.3 28.4994C119.3 28.2994 119.4 28.1994 119.9 28.1994C120.4 28.1994 120.8 28.0994 121.1 28.0994C121.8 27.9994 121.9 27.1994 122.1 26.1994C122.3 24.7994 122.3 22.0994 122.3 18.8994L122.2 12.6994ZM126.3 15.3994C126.3 15.7994 126.4 15.8994 126.6 15.9994C127.3 16.1994 128.3 16.2994 129.2 16.2994C130.6 16.2994 131 16.1994 131.6 15.6994C132.6 14.8994 133.6 13.3994 133.6 10.5994C133.6 5.79941 130.4 4.39941 128.4 4.39941C127.6 4.39941 126.9 4.39941 126.6 4.49941C126.4 4.59941 126.3 4.69941 126.3 4.99941V15.3994Z" fill="white"/>
<path d="M153.6 18.6994C153.6 23.0994 153.6 25.3994 154.3 25.9994C154.9 26.4994 155.8 26.7994 158.4 26.7994C160.2 26.7994 161.5 26.7994 162.4 25.7994C162.8 25.3994 163.2 24.3994 163.3 23.7994C163.3 23.4994 163.4 23.2994 163.7 23.2994C163.9 23.2994 164 23.4994 164 23.8994C164 24.2994 163.8 26.7994 163.5 27.7994C163.3 28.5994 163.1 28.6994 161.4 28.6994C158.9 28.6994 157.2 28.5994 155.6 28.5994C154.1 28.4994 152.8 28.4994 151.4 28.4994C151 28.4994 150.3 28.4994 149.5 28.4994C148.7 28.4994 147.8 28.5994 147.1 28.5994C146.7 28.5994 146.4 28.4994 146.4 28.2994C146.4 28.0994 146.5 27.9994 147 27.9994C147.5 27.9994 147.9 27.8994 148.2 27.8994C148.9 27.7994 149.1 26.9994 149.2 25.9994C149.4 24.5994 149.4 21.8994 149.4 18.6994V12.6994C149.4 7.49941 149.4 6.59941 149.3 5.49941C149.2 4.29941 149 3.79941 147.8 3.59941C147.5 3.49941 147.1 3.49941 146.7 3.49941C146.3 3.49941 146.1 3.39941 146.1 3.19941C146.1 2.99941 146.3 2.89941 146.9 2.89941C148.5 2.89941 150.7 2.99941 151.6 2.99941C152.4 2.99941 154.9 2.89941 156.2 2.89941C156.7 2.89941 156.9 2.99941 156.9 3.19941C156.9 3.39941 156.7 3.49941 156.3 3.49941C155.9 3.49941 155.4 3.49941 155 3.59941C154.1 3.79941 153.8 4.39941 153.7 5.49941C153.6 6.59941 153.6 7.59941 153.6 12.6994V18.6994Z" fill="white"/>
<path d="M169.9 12.6994C169.9 7.49941 169.9 6.59941 169.8 5.49941C169.7 4.29941 169.4 3.79941 168.6 3.59941C168.2 3.49941 167.8 3.49941 167.4 3.49941C167.1 3.49941 166.8 3.39941 166.8 3.19941C166.8 2.99941 167.1 2.89941 167.6 2.89941C168.9 2.89941 171 2.99941 172 2.99941C172.9 2.99941 174.9 2.89941 176.2 2.89941C176.6 2.89941 176.9 2.99941 176.9 3.19941C176.9 3.49941 176.7 3.49941 176.3 3.49941C176 3.49941 175.7 3.49941 175.3 3.59941C174.4 3.79941 174.1 4.39941 174 5.49941C173.9 6.59941 173.9 7.59941 173.9 12.6994V18.6994C173.9 21.9994 173.9 24.6994 174 26.1994C174.1 27.0994 174.3 27.6994 175.4 27.8994C175.9 27.9994 176.6 27.9994 177.1 27.9994C177.5 27.9994 177.7 28.0994 177.7 28.2994C177.7 28.4994 177.4 28.5994 177.1 28.5994C174.9 28.5994 172.7 28.4994 171.8 28.4994C171 28.4994 168.9 28.5994 167.5 28.5994C167.1 28.5994 166.8 28.4994 166.8 28.2994C166.8 28.0994 166.9 27.9994 167.4 27.9994C167.9 27.9994 168.3 27.8994 168.6 27.8994C169.3 27.7994 169.5 27.1994 169.6 26.1994C169.8 24.7994 169.8 22.0994 169.8 18.7994L169.9 12.6994Z" fill="white"/>
<path d="M34.7 28.0002C34.3 28.0002 33.6 28.0002 32.6 27.7002C31.6 27.4002 31.2 26.4002 30.9 24.2002L27.8 3.4002C27.9 3.4002 28 3.4002 28 3.4002C28.2 3.3002 29.3 3.3002 29.4 3.3002C29.6 3.3002 29.7 3.2002 29.7 3.0002C29.7 2.8002 29.6 2.7002 29.4 2.7002C29.1 2.7002 28.1 2.7002 27.7 2.8002C27.4 2.8002 27.1 2.8002 27 2.8002C26.9 2.8002 26.8 2.8002 26.6 2.8002C26.1 2.8002 25.1 2.7002 24.6 2.7002C24.4 2.7002 24.3 2.8002 24.3 3.0002C24.3 3.2002 24.4 3.3002 24.5 3.3002C26 3.2002 26.1 3.7002 26.1 3.7002L17.1 22.4002L7.9 3.4002C8 3.4002 8.1 3.4002 8.1 3.4002C8.3 3.3002 8.9 3.3002 9.1 3.3002C9.3 3.3002 9.4 3.2002 9.4 3.0002C9.4 2.8002 9.2 2.7002 9 2.7002C8.6 2.7002 8 2.7002 7.5 2.8002C7.3 2.8002 7.1 2.8002 7 2.8002C6.8 2.8002 6.6 2.8002 6.4 2.8002C6 2.7002 5.5 2.7002 5.1 2.7002C4.9 2.7002 4.8 2.8002 4.8 3.0002C4.8 3.2002 4.9 3.3002 5 3.3002C5.2 3.3002 5.8 3.3002 5.9 3.4002C6.2 3.5002 6.2 3.7002 6.2 3.7002L3 25.2002C2.8 26.4002 2.6 27.7002 1.6 27.9002C1.1 28.0002 0.8 28.0002 0.6 28.0002C0.2 28.0002 0 28.0002 0 28.2002C0 28.5002 0.3 28.6002 0.6 28.6002C1.7 28.6002 3.3 28.5002 4 28.5002C4.6 28.5002 6.2 28.6002 7.6 28.6002C8.1 28.6002 8.4 28.5002 8.4 28.2002C8.4 28.0002 8.2 28.0002 7.9 28.0002C7.6 28.0002 7.1 28.0002 6.5 27.8002C5.9 27.7002 5.5 27.4002 5.5 26.7002C5.5 26.2002 5.5 25.7002 5.6 25.1002L7.4 11.5002H7.5C8.7 14.1002 10.7 18.4002 11 19.1002C11.4 20.1002 14.1 25.3002 14.9 26.9002C15.5 27.9002 15.8 28.6002 16.1 28.6002C16.4 28.6002 16.6 28.3002 17.4 26.7002L24.8 11.2002H24.9L27 26.2002C27.1 27.2002 27 27.6002 26.8 27.7002C26.6 27.8002 26.4 27.9002 26.4 28.1002C26.4 28.3002 26.6 28.4002 27.4 28.5002C28.8 28.6002 33.5 28.7002 34.3 28.7002C34.8 28.7002 35.2 28.6002 35.2 28.3002C35.2 28.0002 35 28.0002 34.7 28.0002Z" fill="white"/>
</g>
<defs>
<clipPath id="clip0_322_339">
<rect width="225.4" height="51.4" fill="white"/>
</clipPath>
</defs>
</svg>
