<svg width="160" height="37" viewBox="0 0 160 37" fill="none" xmlns="http://www.w3.org/2000/svg">
<g clip-path="url(#clip0_322_228)">
<path fill-rule="evenodd" clip-rule="evenodd" d="M7.85889 4.383C11.5709 2.152 15.3109 0 15.6269 0C15.6899 0 15.8859 0.083 16.1899 0.236C17.4219 0.853 20.4179 2.593 23.3969 4.383C23.4119 8.185 21.4349 10.269 15.6279 9.053C12.4139 10.87 9.88589 8.981 7.85889 4.383Z" fill="#D19E74"/>
<path fill-rule="evenodd" clip-rule="evenodd" d="M23.487 13.7757L15.628 18.4997L7.76904 13.7757L15.628 9.05273L23.487 13.7757Z" fill="#D7D5D8"/>
<path fill-rule="evenodd" clip-rule="evenodd" d="M23.487 13.7757L15.628 18.4997L7.76904 13.7757L15.628 9.05273L23.487 13.7757Z" fill="#D19460"/>
<path fill-rule="evenodd" clip-rule="evenodd" d="M15.98 18.2878L7.886 23.1528L0 18.5538V18.4458L8.003 13.6348L15.98 18.2878Z" fill="#C2C0C7"/>
<path fill-rule="evenodd" clip-rule="evenodd" d="M23.487 13.7757L15.628 18.4997L7.76904 13.7757L15.628 9.05273L23.487 13.7757Z" fill="#D19B6E"/>
<path fill-rule="evenodd" clip-rule="evenodd" d="M31.017 9.24902C31.335 9.97702 31.333 27.18 31.017 27.75C30.701 28.32 16.391 36.923 15.628 37V18.5L23.487 13.776L31.017 9.24902Z" fill="#5E666C"/>
<path fill-rule="evenodd" clip-rule="evenodd" d="M7.769 13.776L0 18.446C0 14.019 0.078 9.60502 0.238 9.24902L7.769 13.776Z" fill="#D7D5D8"/>
<path fill-rule="evenodd" clip-rule="evenodd" d="M15.628 18.5V27.947L7.76898 23.223L15.628 18.5Z" fill="#ACACB4"/>
<path fill-rule="evenodd" clip-rule="evenodd" d="M7.814 23.2227C6.543 26.6447 3.701 27.6707 0.238 27.7497C0.08 27.4637 0 23.0157 0 18.5537C2.89 19.1357 5.625 20.2467 7.814 23.2227Z" fill="#D5D3D3"/>
<path fill-rule="evenodd" clip-rule="evenodd" d="M23.9749 13.8751L15.5629 18.9311L6.66992 14.0341C7.28892 10.9781 10.2849 9.10514 15.6919 9.05314C20.6639 7.85714 24.2119 8.46614 23.9749 13.8751Z" fill="#CA8451"/>
<path fill-rule="evenodd" clip-rule="evenodd" d="M31.019 27.7412L31.017 27.7502C30.85 28.0522 26.747 30.6132 22.817 32.9602L14.282 27.6052L22.719 22.5352L31.019 27.7412Z" fill="#80858D"/>
<path fill-rule="evenodd" clip-rule="evenodd" d="M23.3959 4.38281C27.1229 6.62281 30.7989 8.92581 31.0169 9.24881L23.4869 13.7758L15.6279 9.05281L19.5569 6.69081L23.3959 4.38281Z" fill="#C86834"/>
<path fill-rule="evenodd" clip-rule="evenodd" d="M31.2549 18.4454V18.5544L23.4869 23.2234L15.6279 18.5004L23.4869 13.7764L31.2549 18.4454Z" fill="#5E666C"/>
<path fill-rule="evenodd" clip-rule="evenodd" d="M31.2549 18.4454V18.5544C29.5979 22.0044 26.7919 23.1204 23.4869 23.2234C18.8109 24.3504 16.3009 22.6324 15.6279 18.5004L23.4869 13.7764C27.3679 14.0074 30.1229 15.3954 31.2549 18.4454Z" fill="#5E6166"/>
<path fill-rule="evenodd" clip-rule="evenodd" d="M31.017 9.24902C31.174 9.61002 31.254 14.019 31.255 18.445L23.487 13.776L31.017 9.24902Z" fill="#464950"/>
<path fill-rule="evenodd" clip-rule="evenodd" d="M31.0169 27.7504C30.8579 28.0374 27.1409 30.3664 23.3959 32.6164C19.4039 33.7754 17.3069 31.2644 15.6279 27.9474C16.8259 25.7484 18.3059 23.6734 23.4869 23.2234C29.0579 22.5854 30.3589 24.9424 31.0169 27.7504Z" fill="#5E6166"/>
<path fill-rule="evenodd" clip-rule="evenodd" d="M0.238037 27.7496L8.18204 22.9756L16.201 27.4926L7.93004 32.4636L3.92704 30.2086C1.89604 28.9496 0.382037 27.9596 0.238037 27.7496Z" fill="#B7B6BD"/>
<path fill-rule="evenodd" clip-rule="evenodd" d="M31.2551 18.5537C31.2551 22.9857 31.1761 27.3937 31.0171 27.7497L23.4871 23.2227L31.2551 18.5537Z" fill="#51555A"/>
<path fill-rule="evenodd" clip-rule="evenodd" d="M7.814 13.7756C6.347 17.4666 4.502 19.3296 0 18.4456L0.014 15.3116L0.207 9.4136L0.238 9.2486C0.26 9.2096 0.35 9.1306 0.503 9.0166L7.814 13.7756Z" fill="#D5D3D3"/>
<path fill-rule="evenodd" clip-rule="evenodd" d="M7.85904 4.38281L15.628 9.05281L7.76904 13.7758L0.238037 9.24881C0.397037 8.96181 4.11404 6.63281 7.85904 4.38281Z" fill="#D8BBA7"/>
<path fill-rule="evenodd" clip-rule="evenodd" d="M15.628 18.5004C14.199 21.2994 11.923 23.2274 7.769 23.2234L0.001 18.5544L0 18.4464L7.769 13.7764L15.628 18.5004Z" fill="#BCBABA"/>
<path fill-rule="evenodd" clip-rule="evenodd" d="M0.238037 27.7497L7.76904 23.2227C10.643 23.8567 13.391 24.9577 15.628 27.9467C13.734 29.9687 11.034 31.4517 7.85904 32.6157C4.14404 30.3847 0.456037 28.0737 0.238037 27.7497Z" fill="#B0ADAE"/>
<path fill-rule="evenodd" clip-rule="evenodd" d="M23.487 23.223L15.628 27.947L7.76898 23.223L15.628 18.5L23.487 23.223Z" fill="#A29FA2"/>
<path fill-rule="evenodd" clip-rule="evenodd" d="M23.3969 32.6163C19.6829 34.8483 15.9439 37.0003 15.6279 37.0003C15.3119 37.0003 11.5719 34.8483 7.85889 32.6163L15.6279 27.9473L23.3969 32.6163Z" fill="#969496"/>
<path d="M57.998 29.235V10.555H52.662V12.54C51.954 11.396 50.315 9.91602 47.389 9.91602C42.631 9.91602 38.42 13.753 38.42 19.877C38.42 25.23 41.731 29.874 47.389 29.874C49.479 29.874 51.697 29.033 52.662 27.216V29.235H57.998ZM51.922 22.57C51.247 23.715 50.089 24.657 48.193 24.657C44.978 24.657 43.756 21.695 43.756 19.979V19.945C43.756 17.825 45.106 15.132 48.161 15.132C50.411 15.132 51.633 16.445 52.211 17.724C52.565 18.498 52.726 19.339 52.662 20.181C52.597 21.022 52.372 21.83 51.922 22.57Z" fill="#464950"/>
<path d="M72.9831 4.3291V12.1371C72.4031 11.5321 70.8931 9.9161 67.7421 9.9161C63.2091 9.9161 58.9021 13.5161 58.9021 19.8441C58.9021 25.4651 62.4371 29.8401 67.8391 29.8401C71.4391 29.8401 72.7251 27.9891 73.2401 27.2161V29.2351H78.3191V4.3291H72.9831ZM72.0181 23.2101C71.1821 24.0851 69.9921 24.6241 68.7071 24.6241C66.1981 24.6241 64.2371 22.7041 64.2371 19.8441V19.8111C64.2371 17.6571 65.6841 15.1311 68.7701 15.1311C70.0251 15.1311 71.1501 15.6031 71.9541 16.4441C72.7571 17.2531 73.2711 18.3971 73.2711 19.7441C73.3361 21.1241 72.8541 22.3351 72.0181 23.2101Z" fill="#464950"/>
<path d="M90.6679 29.2347L97.0969 10.5547H91.5679L88.1269 22.2007L84.6879 10.5547H79.1589L85.5559 29.2347H90.6679Z" fill="#464950"/>
<path d="M105.005 29.84C106.838 29.84 108.606 29.268 110.084 28.157C111.596 27.081 112.85 25.465 113.719 23.378H108.253C107.609 24.355 106.709 25.128 105.005 25.128C102.916 25.128 101.116 23.816 100.889 21.83H114.168C114.585 18.397 113.911 15.402 111.66 12.878C109.989 11.027 107.642 9.91602 104.909 9.91602C99.476 9.91602 95.553 14.728 95.553 19.945C95.553 25.498 99.894 29.84 105.005 29.84ZM104.941 14.627C107.706 14.627 108.799 16.714 108.927 17.589H100.954C101.083 16.714 102.176 14.627 104.941 14.627Z" fill="#464950"/>
<path d="M124.871 15.5357V10.5617C121.786 10.5617 120.853 11.6317 120.339 12.6407V10.5547H115.323V29.2347H120.661V19.2047C120.661 16.5787 121.946 15.5357 124.678 15.5357H124.871Z" fill="#464950"/>
<path d="M131.121 4.3291H125.785V8.5691H131.121V4.3291Z" fill="#464950"/>
<path d="M154.342 10.5551L150.934 21.3921L147.302 10.5551H140.551V4.3291H135.214V10.5551H125.785V29.2351H131.121V14.7971H135.214V29.2351H140.551V14.7971H143.122V14.6041L148.233 28.2921L146.51 32.6581H152.068L160 10.5551H154.342Z" fill="#464950"/>
</g>
<defs>
<clipPath id="clip0_322_228">
<rect width="160" height="37" fill="white"/>
</clipPath>
</defs>
</svg>
