<svg xmlns="http://www.w3.org/2000/svg" xmlns:xlink="http://www.w3.org/1999/xlink" preserveAspectRatio="xMidYMid" width="229" height="28" viewBox="0 0 229 28">
  <defs>
    <style>
      .cls-1 {
        fill: #23548a;
      }

      .cls-1, .cls-2 {
        fill-rule: evenodd;
      }

      .cls-2 {
        fill: #c5c5c5;
      }
    </style>
  </defs>
  <path d="M229.000,23.000 L229.000,27.000 C227.957,27.597 226.639,28.001 225.066,28.001 C219.418,28.001 218.000,24.453 218.000,20.000 L218.000,14.000 L212.000,14.000 L212.000,28.000 L206.000,28.000 L206.000,14.000 L202.000,14.000 L202.000,9.000 L206.000,9.000 L206.000,8.000 C206.000,2.398 208.494,-0.007 212.938,-0.007 C215.160,-0.007 216.595,0.520 216.595,0.520 L216.000,5.000 C216.000,5.000 215.438,4.542 214.512,4.542 C212.707,4.542 211.966,5.739 211.966,7.558 L212.000,9.000 L218.000,9.000 L218.000,5.000 L224.000,3.000 L224.000,9.000 L229.000,9.000 L229.000,14.000 L224.000,14.000 L224.000,20.000 C224.000,25.846 229.000,23.000 229.000,23.000 ZM198.186,13.334 C195.317,13.334 193.000,15.808 193.000,20.000 L193.000,28.000 L186.986,27.993 L187.000,9.000 L193.000,9.000 L193.000,12.000 C194.018,10.257 195.687,8.011 197.631,8.011 C198.834,8.011 199.945,8.435 199.991,8.435 L200.000,14.000 C200.000,14.000 199.065,13.334 198.186,13.334 ZM177.729,23.575 C179.357,23.575 181.192,23.207 183.000,22.267 L183.000,26.894 C181.032,27.637 178.867,28.001 176.611,28.001 C170.602,28.001 165.991,24.305 165.991,17.982 C165.991,11.659 170.090,8.012 175.772,8.012 C182.526,8.012 184.995,13.021 184.995,18.712 L185.000,20.000 L172.388,20.000 C172.743,22.569 174.685,23.575 177.729,23.575 ZM179.255,16.000 C179.200,13.896 178.216,12.194 175.772,12.194 C173.555,12.194 172.489,13.896 172.301,16.000 L179.255,16.000 ZM152.234,27.991 L149.500,16.922 L146.766,27.991 L139.510,27.991 L134.000,9.005 L140.475,9.005 L143.413,22.663 L143.459,22.663 L146.582,9.005 L152.418,9.005 L155.541,22.663 L155.587,22.663 L158.525,9.005 L165.000,9.005 L159.490,27.991 L152.234,27.991 ZM124.624,28.001 C121.834,28.001 118.000,27.000 118.000,27.000 L119.000,22.000 C119.000,22.000 122.063,23.582 124.304,23.582 C125.585,23.582 127.000,23.311 127.000,22.000 C127.000,19.149 118.000,20.296 118.000,14.000 C118.000,9.630 122.063,8.043 125.722,7.995 C127.872,7.995 132.000,9.000 132.000,9.000 L131.000,14.000 C131.000,14.000 128.238,12.414 126.682,12.414 C125.310,12.414 124.000,12.932 124.000,14.000 C124.000,16.525 133.000,15.423 133.000,22.000 C133.000,26.167 128.695,28.001 124.624,28.001 ZM110.000,28.000 C110.000,28.000 110.000,18.996 110.000,18.000 C110.000,14.419 109.262,13.288 107.493,13.304 C104.870,13.328 103.000,15.031 103.000,19.000 L103.000,28.000 L97.000,28.008 L97.000,9.000 L103.000,9.000 L103.000,12.000 C108.507,5.368 116.000,7.897 116.000,14.000 L115.984,27.961 L110.000,28.000 ZM87.729,23.575 C89.357,23.575 91.192,23.207 93.000,22.267 L93.000,26.894 C91.032,27.637 88.867,28.001 86.611,28.001 C80.602,28.001 75.991,24.305 75.991,17.982 C75.991,11.659 80.090,8.012 85.772,8.012 C92.526,8.012 94.995,13.021 94.995,18.712 L95.000,20.000 L82.388,20.000 C82.743,22.569 84.685,23.575 87.729,23.575 ZM89.255,16.000 C89.200,13.896 88.216,12.194 85.772,12.194 C83.555,12.194 82.489,13.896 82.301,16.000 L89.255,16.000 ZM65.624,28.001 C62.834,28.001 59.000,27.000 59.000,27.000 L60.000,22.000 C60.000,22.000 63.063,23.582 65.304,23.582 C66.585,23.582 68.000,23.311 68.000,22.000 C68.000,19.149 59.000,20.296 59.000,14.000 C59.000,9.630 63.063,8.043 66.722,7.995 C68.872,7.995 73.000,9.000 73.000,9.000 L72.000,14.000 C72.000,14.000 69.238,12.414 67.682,12.414 C66.310,12.414 65.000,12.932 65.000,14.000 C65.000,16.525 74.000,15.423 74.000,22.000 C74.000,26.167 69.695,28.001 65.624,28.001 ZM48.624,28.001 C45.834,28.001 42.000,27.000 42.000,27.000 L43.000,22.000 C43.000,22.000 46.063,23.582 48.304,23.582 C49.585,23.582 51.000,23.311 51.000,22.000 C51.000,19.149 42.000,20.296 42.000,14.000 C42.000,9.630 46.063,8.043 49.722,7.995 C51.872,7.995 56.000,9.000 56.000,9.000 L55.000,14.000 C55.000,14.000 52.238,12.414 50.682,12.414 C49.310,12.414 48.000,12.932 48.000,14.000 C48.000,16.525 57.000,15.423 57.000,22.000 C57.000,26.167 52.695,28.001 48.624,28.001 ZM34.000,21.000 L32.996,8.990 L40.003,8.990 L39.000,21.000 L34.000,21.000 ZM18.234,27.991 L15.500,16.922 L12.766,27.991 L5.510,27.991 L-0.000,9.005 L6.475,9.005 L9.413,22.663 L9.459,22.663 L12.582,9.005 L18.418,9.005 L21.541,22.663 L21.587,22.663 L24.525,9.005 L31.000,9.005 L25.490,27.991 L18.234,27.991 Z" class="cls-1"/>
  <path d="M34.002,23.006 L39.014,23.006 L39.014,28.008 L34.002,28.008 L34.002,23.006 Z" class="cls-2"/>
</svg>
