<svg version="1.2" xmlns="http://www.w3.org/2000/svg" viewBox="0 0 402 101" width="402" height="101">
	<style>
		.s0 { fill: #9e0135 } 
	</style>
	<path class="s0" d="m228.5 26.7c-3-1.4-6.8-1.8-9.8-1.8-5.1 0-6.5 3.1-6.5 5.5 0 3.5 3.5 6.3 7.3 6.8l3.8 0.6-0.2 5.7h-4.1c-4.8 0-8.1 3.8-8.1 7.5 0 4.1 3.3 7.5 8.4 7.5 3.7 0 7.6-0.6 11.3-2.1h0.5v7.3c-2.6 1.1-7.7 2.1-11.8 2.1-11.7 0-18.4-7.2-18.4-14.5 0-5.5 2.6-10.5 8.4-12.7-4-1.4-7.1-5.3-7.1-10 0-6.5 6.6-11.1 14.4-11.1 4.4 0 8.8 0.8 12 1.7v-8.2l6.5-1.5h3.4v8.9h9.8v7.9h-9.8v13.4c0 2.8 1.4 4.5 4.3 4.5 1.8 0 3.6-0.6 4.9-1.4h0.6v7.6c-2.2 1.1-6.4 1.6-9 1.6-5.7 0-10.7-2.2-10.7-9.2z"/>
	<path class="s0" d="m0.5 17.9h10.2v12.5h2.6l11.6-12.5h10.7v0.7l-14.4 15 13.9 17.1v0.8h-11l-10.8-13.7h-2.6v13.7h-10.2z"/>
	<path class="s0" d="m40.9 5.2c0-2.8 1.8-4.7 5.2-4.7 3.4 0 5.3 1.9 5.3 4.7 0 2.9-1.9 4.8-5.3 4.8-3.4 0-5.2-1.9-5.2-4.8zm0 13.7l6.5-1.6h3.5v34.2h-10z"/>
	<path class="s0" d="m60.3 18.9l6.6-1.6h3.4v5.5h0.5c1.8-2.4 4.9-4.9 8.4-4.9 1 0 2.3 0 3.7 0.5v7.9h-5.6c-2.8 0-5 0.8-7 2.6v22.6h-10z"/>
	<path class="s0" d="m85.2 50.4v-7.9h0.5c2.7 1.4 6.9 2.1 10.1 2.1 2.8 0 6.8-0.2 6.8-3.1 0-2.1-2.1-2.5-4-2.9l-4.2-1c-5.9-1.5-9.2-4.5-9.2-10.3 0-7.4 7.1-10 14.5-10 4.2 0 7.8 0.6 11 1.6v7.6h-0.6c-2.8-1-6.7-1.8-9.9-1.8-2.1 0-5 0.2-5 2.6 0 2.1 1.8 2.7 4.5 3.4l4.9 1.3c4.7 1.3 8 3.7 8 9 0 8.1-7.7 11-15.8 11-3.7 0-8.7-0.5-11.6-1.6z"/>
	<path class="s0" d="m116.7 34.7c0-11.6 8.2-17.4 19.7-17.4 3.2 0 6.1 0.6 9 1.9v8.1h-0.6c-2.1-1.3-5.2-2.1-8.4-2.1-6 0-9.7 3.4-9.7 9.5 0 6 3.4 9.4 9.4 9.4 3.7 0 5.9-1 9-2.4h0.5v7.9c-2.5 1.3-6.1 2.4-10.5 2.4-11.5 0-18.4-5.8-18.4-17.3z"/>
	<path class="s0" d="m154.3 2.6l6.6-1.5h3.4v19.9h0.5c2.9-2.1 5.6-3.1 9.2-3.1 4.3 0 8.2 1.5 10.5 5.2 1.3 2.2 2.1 5 2.1 8.7v19.7h-10v-16.8c0-2.1-0.2-4.1-0.7-5.3-0.9-1.9-2.5-2.9-5.5-2.9-2.5 0-4.5 1.1-6.1 2.4v22.6h-10z"/>
	<path class="s0" d="m265.2 17.9h10.2v12.5h2.6l11.6-12.5h10.7v0.7l-14.3 15 13.9 17.1v0.8h-11.1l-10.8-13.7h-2.6v13.7h-10.2z"/>
	<path fill-rule="evenodd" class="s0" d="m301 34.7c0-10.8 7.9-17.4 18.4-17.4 8.4 0 14.7 4 14.7 12.4 0 1.9-0.2 4.8-0.5 6.5l-22.3 0.8c0.6 4.7 4.6 7.1 9.4 7.1 4.5 0 8.4-1 11.3-2.4h0.5v7.9c-3.4 1.9-8.6 2.4-12.9 2.4-11.5 0-18.6-5.8-18.6-17.3zm23.4-4.5v-0.8c0-3.4-2.1-5-5.8-5-4.2 0-6.8 2.7-7.4 6.3v0.2z"/>
	<path class="s0" d="m341.9 18.9l6.6-1.6h3.5v5.5h0.5c1.7-2.4 4.8-4.9 8.4-4.9 1 0 2.3 0 3.6 0.5v7.9h-5.5c-2.8 0-5 0.8-7 2.6v22.6h-10.1c0 0 0-32.6 0-32.6z"/>
	<path class="s0" d="m369.5 18.9l6.6-1.6h3.4v3.7h0.5c2.9-2.1 5.6-3.1 9.2-3.1 4.4 0 8.3 1.5 10.5 5.2 1.3 2.2 2.1 5 2.1 8.7v19.7h-10v-17.1c0-2.1-0.2-4-0.7-5.2-0.9-1.9-2.5-2.9-5.5-2.9-2.5 0-4.5 1-6.1 2.3v22.9h-10z"/>
	<g>
		<path class="s0" d="m0 76.9h2.6v18.9h-2.6z"/>
		<path class="s0" d="m16.4 95.8v-16.7h-6.3v-2.2h15.2v2.2h-6.3v16.7z"/>
		<path class="s0" d="m43.9 76.9h11.8v2.2h-9.2v5.9h8.8v2.2h-8.8v6.3h9.4v2.3h-12z"/>
		<path class="s0" d="m76.3 95.8h-3.3l-3.7-5.3-3.7 5.3h-2.9l5.2-6.9-4.9-6.2h3.2l3.5 4.9 3.7-4.9h2.9l-5.2 6.4z"/>
		<path fill-rule="evenodd" class="s0" d="m83.7 84.8c0-0.6 0-0.9-0.1-2.1h2.5l0.1 2.1c1.2-2 3.4-2.3 4.4-2.3 2.9 0 5.5 1.9 5.5 6.8 0 4.8-2.8 7-5.9 7-1.9 0-3.4-0.8-4.1-2v6.5h-2.4zm6 9.7c0.7 0 2-0.1 2.8-1.3 0.9-1.3 1.1-3.1 1.1-4.1 0-2.3-0.7-4.8-3.6-4.8-3.9 0-3.9 4.2-3.9 5.3 0 1.6 0.2 4.9 3.6 4.9z"/>
		<path fill-rule="evenodd" class="s0" d="m105.8 89.7c-0.1 2.7 1.1 4.7 3.7 4.7 1.6 0 2.9-0.8 3.1-2.7h2.5c-0.1 0.6-0.2 1.7-1.1 2.7-0.6 0.7-1.9 1.8-4.6 1.8-4.1 0-6-2.6-6-6.7 0-2.6 0.5-4.8 2.5-6.2 1.3-0.9 2.9-1 3.6-1 5.9 0 5.8 5.2 5.7 7.4zm6.9-1.7c0.1-1.3-0.2-3.9-3.2-3.9-1.6 0-3.5 1-3.6 3.9z"/>
		<path class="s0" d="m123.5 85.3c0-0.8-0.1-1.8-0.1-2.6h2.4l0.1 2.5c0.5-1.8 2-2.4 3.1-2.6 0.8-0.1 1.3-0.1 1.7 0v2.4q-0.2-0.1-0.4-0.1-0.3-0.1-0.7-0.1c-2.9 0-3.6 1.8-3.6 4v7h-2.5z"/>
		<path class="s0" d="m135.4 82.6h2.4v-2.7l2.4-0.8v3.5h2.9v1.8h-2.9v7.9c0 0.6 0 1.7 1.7 1.7 0.5 0 1 0 1.2-0.1v1.9c-0.4 0.1-1.1 0.2-2 0.2-2.3 0-3.3-0.7-3.3-2.8v-8.8h-2.4c0 0 0-1.8 0-1.8z"/>
		<path class="s0" d="m152.1 91.9c0 1 0.5 2.4 2.9 2.4 1 0 1.8-0.2 2.3-0.9 0.3-0.3 0.4-0.7 0.4-1.2 0-1.3-0.9-1.5-2.9-2-2.7-0.6-5-1.1-5-3.9 0-2.4 2.1-3.9 5.1-3.9 1.7 0 4 0.4 4.8 2 0.3 0.7 0.3 1.4 0.3 1.9h-2.5c0.1-2-1.7-2.1-2.5-2.1-0.4 0-2.7 0-2.7 1.8 0 1.2 1.2 1.5 1.8 1.7 3.7 0.9 4.5 1.1 5.2 1.8 0.8 0.7 1 1.6 1 2.4 0 1.5-0.8 2.8-1.7 3.4-1.2 0.7-2.6 0.9-3.9 0.9-2.7 0-5.2-1.1-5.2-4.3 0 0 2.6 0 2.6 0z"/>
		<path fill-rule="evenodd" class="s0" d="m188.2 95.8c-0.2-0.7-0.3-1.3-0.3-2-1.2 2.2-2.9 2.4-4 2.4-3 0-4.7-1.7-4.7-3.9 0-1 0.4-2.7 2.3-3.8 1.5-0.8 3.5-0.9 4.6-0.9 0.6 0 1 0.1 1.8 0.1 0-1.6 0-2.3-0.5-2.9-0.5-0.6-1.6-0.8-2.3-0.8-2.5 0-2.6 1.7-2.6 2.2h-2.5c0.1-0.7 0.2-1.6 0.9-2.5 1-1.1 2.9-1.4 4.3-1.4 1.9 0 3.9 0.6 4.6 1.9 0.4 0.8 0.5 1.4 0.5 2l-0.1 6.3c0 0.2 0 2 0.2 3.3 0 0-2.2 0-2.2 0zm-1.7-6.5c-1 0-4.8 0-4.8 2.7 0 0.8 0.6 2.3 2.7 2.3 1.3 0 2.2-0.5 2.8-1.4 0.6-0.9 0.6-1.7 0.7-3.5-0.5 0-0.8-0.1-1.4-0.1z"/>
		<path class="s0" d="m199.3 84.2v-1.5h2.4l0.1 2.1c0.3-0.6 1.2-2.4 4.2-2.4 1.2 0 4.7 0.5 4.7 4.5v8.9h-2.5v-8.3c0-0.9-0.1-1.7-0.7-2.3-0.6-0.6-1.5-0.9-2.3-0.9-1.8 0-3.4 1.3-3.4 3.9v7.6h-2.5c0 0 0-11.6 0-11.6z"/>
		<path fill-rule="evenodd" class="s0" d="m228.9 77h2.4v16.7c0 0.3 0.1 1.4 0.1 2.1h-2.4l-0.1-2.1c-0.2 0.4-0.5 0.9-1.2 1.4-1 0.7-2.3 1-3.2 1-1.8 0-5.6-1-5.6-6.7 0-5 2.8-7.2 5.9-7.2 2.8 0 3.7 1.7 4.1 2.3 0 0 0-7.5 0-7.5zm-1 8.4c-0.5-0.7-1.4-1.3-2.8-1.3-3.6 0-3.6 4.3-3.6 5.2 0 2.3 0.6 5 3.6 5 3.8 0 3.8-4.2 3.8-5.3 0-1.9-0.4-2.9-1-3.6z"/>
		<path class="s0" d="m254 90.3c0 1.3 0.2 3.7 4.5 3.7 4 0 4.5-2.4 4.5-3.4 0-2.1-1.7-2.5-4.4-3.1-2.9-0.8-4.1-1.1-5.1-1.7-1.5-1.1-2-2.5-2-3.7 0-3.9 3.7-5.5 7.2-5.5 1.3 0 3.8 0.2 5.3 1.8 1.1 1.2 1.1 2.4 1.2 3.2h-2.7c-0.2-2.3-2.2-2.8-4-2.8-2.6 0-4.2 1.1-4.2 3 0 1.7 1.1 2.3 3.4 2.8 4.5 1.2 5 1.3 6.1 2 1.7 1.1 1.9 3 1.9 3.8 0 3.3-2.6 5.8-7.5 5.8-1.4 0-4.3-0.2-5.8-2.1-1.1-1.4-1.1-2.9-1.1-3.8 0 0 2.7 0 2.7 0z"/>
		<path fill-rule="evenodd" class="s0" d="m279.3 82.3c5.2 0 6.4 4.2 6.4 6.9 0 3.8-2.2 7-6.6 7-4.4 0-6.5-3-6.5-6.8 0-3.3 1.5-7.1 6.7-7.1zm-0.2 12.1c1.9 0 4-1.3 4-5.3 0-3.2-1.5-5-3.8-5-1.6 0-4.1 1-4.1 5.1 0 2.7 1.1 5.2 3.9 5.2z"/>
		<path class="s0" d="m294.2 77h2.4v18.8h-2.4z"/>
		<path class="s0" d="m308.2 82.7v8.4c0 1.3 0.3 2.9 2.8 2.9 1.2 0 2.3-0.4 3.1-1.5 0.5-0.7 0.5-1.8 0.5-2.4v-7.4h2.5v10.6c0 0.3 0.1 1.8 0.1 2.5h-2.5l-0.1-2.3c-0.5 1-1.4 2.4-4.2 2.4-3.2 0-4.7-1.8-4.7-4.4v-8.8z"/>
		<path class="s0" d="m324.5 82.6h2.3v-2.7l2.4-0.8v3.5h2.9v1.8h-2.9v7.9c0 0.6 0 1.7 1.8 1.7 0.5 0 0.9 0 1.1-0.1v1.9c-0.4 0.1-1.1 0.2-2 0.2-2.2 0-3.3-0.7-3.3-2.8v-8.8h-2.3c0 0 0-1.8 0-1.8z"/>
		<path class="s0" d="m339.5 77h3v2.7h-3zm0.3 5.7h2.4v13.1h-2.4z"/>
		<path fill-rule="evenodd" class="s0" d="m357.3 82.3c5.2 0 6.4 4.2 6.4 6.9 0 3.8-2.2 7-6.6 7-4.4 0-6.5-3-6.5-6.8 0-3.3 1.5-7.1 6.7-7.1zm-0.2 12.1c1.9 0 4-1.3 4-5.3 0-3.2-1.5-5-3.8-5-1.6 0-4.1 1-4.1 5.1 0 2.7 1.1 5.2 3.9 5.2z"/>
		<path class="s0" d="m372.2 84.2v-1.5h2.4v2.1c0.3-0.6 1.3-2.4 4.2-2.4 1.2 0 4.8 0.5 4.8 4.5v8.9h-2.5v-8.3c0-0.9-0.1-1.7-0.7-2.3-0.6-0.6-1.5-0.9-2.3-0.9-1.8 0-3.5 1.3-3.5 3.9v7.6h-2.4z"/>
		<path class="s0" d="m394.1 91.9c-0.1 1 0.4 2.4 2.8 2.4 1 0 1.8-0.2 2.3-0.9 0.3-0.3 0.4-0.7 0.4-1.2 0-1.3-0.9-1.5-2.8-2-2.8-0.6-5.1-1.1-5.1-3.9 0-2.4 2.1-3.9 5.1-3.9 1.7 0 4 0.4 4.8 2 0.3 0.7 0.3 1.4 0.3 1.9h-2.5c0.1-2-1.6-2.1-2.5-2.1-0.4 0-2.7 0-2.7 1.8 0 1.2 1.2 1.5 1.9 1.7 3.6 0.9 4.4 1.1 5.2 1.8 0.7 0.7 1 1.6 1 2.4 0 1.5-0.9 2.8-1.8 3.4-1.2 0.7-2.6 0.9-3.9 0.9-2.7 0-5.2-1.1-5.1-4.3 0 0 2.6 0 2.6 0z"/>
	</g>
</svg>